<svg aria-hidden="true" style="position: absolute; width: 0; height: 0; overflow: hidden;" version="1.1" xmlns="http://www.w3.org/2000/svg" xmlns:xlink="http://www.w3.org/1999/xlink">
<defs>
<symbol id="icon-plus" viewBox="0 0 32 32">
<path d="M14.733 1.268c0-0.171 0.034-0.334 0.096-0.484 0.065-0.156 0.159-0.296 0.275-0.412 0.229-0.229 0.546-0.371 0.896-0.371 0.171 0 0.335 0.034 0.485 0.097 0.003 0.001 0.006 0.003 0.010 0.004 0.152 0.065 0.288 0.157 0.402 0.271 0.229 0.229 0.371 0.546 0.371 0.896 0 0.008-0.001 0.016-0.002 0.023v13.443h13.442c0.008-0.001 0.016-0.002 0.023-0.002 0.171 0 0.335 0.034 0.485 0.097 0.004 0.001 0.006 0.003 0.010 0.004 0.152 0.065 0.288 0.157 0.402 0.271 0.229 0.229 0.372 0.546 0.372 0.896 0 0.17-0.035 0.334-0.097 0.484-0.065 0.156-0.159 0.296-0.275 0.412s-0.255 0.21-0.411 0.275v0c-0.15 0.062-0.314 0.096-0.485 0.096-0.008 0-0.016-0.001-0.023-0.002l-13.442 0v13.442c0.001 0.008 0.002 0.016 0.002 0.023 0 0.171-0.035 0.335-0.097 0.485-0.002 0.004-0.003 0.006-0.005 0.010-0.065 0.152-0.157 0.288-0.27 0.402-0.23 0.23-0.547 0.372-0.897 0.372-0.17 0-0.334-0.034-0.484-0.097-0.156-0.065-0.296-0.159-0.412-0.275s-0.21-0.255-0.275-0.411h-0c-0.062-0.15-0.097-0.314-0.097-0.485 0-0.008 0.001-0.016 0.002-0.023v-13.442h-13.442c-0.008 0.001-0.015 0.002-0.023 0.002-0.17 0-0.334-0.034-0.484-0.097-0.156-0.065-0.296-0.159-0.412-0.275s-0.21-0.255-0.275-0.411v0c-0.062-0.15-0.097-0.314-0.097-0.485s0.034-0.334 0.097-0.484c0.065-0.156 0.159-0.296 0.275-0.412 0.229-0.229 0.546-0.371 0.896-0.371 0.008 0 0.016 0.001 0.023 0.002h13.443v-13.443c-0.001-0.008-0.002-0.016-0.002-0.023v0z"></path>
</symbol>
<symbol id="icon-close" viewBox="0 0 32 32">
<path d="M0.371 2.165c-0.495-0.495-0.495-1.298 0-1.793s1.298-0.495 1.793 0l13.835 13.835 13.835-13.835c0.495-0.495 1.298-0.495 1.794 0s0.495 1.298 0 1.793l-13.836 13.835 13.835 13.835c0.495 0.495 0.495 1.298 0 1.793s-1.298 0.495-1.794 0l-13.835-13.835-13.835 13.835c-0.495 0.495-1.298 0.495-1.793 0s-0.495-1.298 0-1.793l13.835-13.835-13.835-13.835z"></path>
</symbol>
</defs>
</svg>